<?xml version="1.0" standalone="no"?>
<!DOCTYPE svg PUBLIC "-//W3C//DTD SVG 20010904//EN"
 "http://www.w3.org/TR/2001/REC-SVG-20010904/DTD/svg10.dtd">

<svg version="1.0" xmlns="http://www.w3.org/2000/svg"
 width="512.000000pt" height="512.000000pt" viewBox="0 0 512.000000 512.000000"
 preserveAspectRatio="xMidYMid meet">
<rect width="100%" height="100%" rx="100" ry="100" fill="#959DA5"/>
<g transform="translate(0.000000,512.000000) scale(0.100000,-0.100000)"
fill="#000000" stroke="none">
<path d="M584 4555 c-143 -31 -265 -98 -368 -201 -76 -75 -123 -147 -163 -244
-52 -130 -54 -161 -51 -730 4 -519 4 -526 27 -595 33 -100 72 -173 133 -248
124 -154 292 -245 501 -272 56 -7 53 4 32 -180 -9 -72 -13 -145 -10 -164 9
-50 53 -110 99 -134 69 -35 127 -29 239 25 193 94 318 214 417 401 l25 47 356
0 357 0 5 -302 c6 -340 12 -379 77 -513 72 -149 186 -263 335 -335 144 -70
159 -72 638 -77 l428 -5 26 -51 c92 -183 274 -347 463 -418 126 -47 228 -8
275 105 16 37 16 51 -1 199 -19 177 -19 177 46 177 60 0 150 28 250 77 79 38
109 60 181 132 95 95 146 177 188 299 l26 77 3 524 c3 449 1 536 -13 603 -53
262 -231 464 -490 555 l-80 28 -582 3 -582 3 -3 322 -3 322 -28 80 c-90 256
-291 436 -552 490 -99 21 -2106 21 -2201 0z m2218 -208 c137 -53 239 -138 302
-251 59 -105 66 -155 66 -473 l0 -283 -80 0 c-94 0 -131 -15 -150 -59 -16 -39
-5 -82 26 -112 l26 -24 756 -5 c707 -5 760 -6 807 -24 165 -62 277 -174 341
-344 17 -43 19 -94 22 -553 3 -563 1 -586 -61 -703 -40 -75 -134 -172 -208
-213 -78 -44 -147 -62 -258 -69 -130 -7 -139 -10 -161 -47 -24 -39 -26 -161
-6 -332 7 -60 12 -112 10 -113 -5 -7 -128 59 -176 94 -96 71 -191 198 -229
308 -8 21 -27 49 -42 62 l-29 24 -421 0 c-232 0 -456 5 -497 10 -153 20 -316
132 -388 268 -65 123 -65 123 -70 612 -4 493 2 596 45 694 14 34 28 80 30 103
4 35 1 46 -20 67 -118 117 -236 -67 -253 -394 l-7 -130 -406 0 c-353 0 -409
-2 -429 -16 -12 -8 -45 -63 -73 -122 -45 -93 -62 -116 -138 -192 -64 -64 -106
-95 -163 -124 -43 -22 -80 -37 -82 -35 -2 2 2 51 10 109 16 130 18 294 3 323
-23 45 -50 57 -130 57 -107 0 -183 16 -269 57 -94 45 -194 141 -239 231 -59
116 -61 139 -61 663 0 273 4 499 10 530 16 86 80 206 147 272 63 64 184 131
263 146 25 5 515 8 1090 8 988 -2 1048 -3 1092 -20z"/>
<path d="M1528 4165 c-30 -29 -38 -63 -38 -150 l0 -63 -202 -4 c-215 -3 -233
-7 -259 -54 -15 -29 -15 -69 0 -98 27 -50 33 -51 399 -54 209 -2 342 -7 342
-13 0 -5 -11 -41 -25 -80 -25 -72 -38 -97 -108 -207 l-40 -63 -23 28 c-12 15
-44 65 -69 111 -52 91 -74 112 -121 112 -39 0 -89 -39 -98 -76 -9 -34 45 -149
119 -255 l55 -78 -88 -72 c-48 -40 -125 -97 -172 -127 -47 -30 -100 -64 -117
-76 -40 -26 -57 -65 -49 -109 8 -43 33 -66 80 -74 32 -5 49 2 142 58 58 35
154 102 212 149 58 47 110 89 117 94 9 6 34 -10 82 -51 134 -115 346 -253 390
-253 54 0 103 48 103 100 0 32 -20 64 -53 86 -173 112 -243 161 -304 214 l-73
61 54 77 c84 120 161 287 184 397 l8 40 64 7 c36 4 75 12 86 19 43 22 59 87
35 133 -26 47 -43 51 -263 54 l-208 4 0 91 c0 85 -2 93 -27 119 -36 38 -99 39
-135 3z"/>
<path d="M2559 3241 c-39 -40 -40 -89 -1 -132 49 -55 138 -36 161 34 33 98
-87 171 -160 98z"/>
<path d="M3551 2752 c-19 -9 -42 -28 -52 -42 -10 -14 -81 -236 -160 -494 -114
-378 -140 -474 -133 -495 14 -38 78 -71 140 -71 60 0 77 14 94 80 6 25 18 69
27 98 l15 52 161 -2 161 -3 28 -100 c16 -57 35 -105 45 -112 25 -19 99 -16
142 6 46 24 64 44 63 74 0 25 -276 929 -294 964 -29 56 -165 82 -237 45z m149
-492 c27 -102 50 -188 50 -192 0 -5 -50 -8 -111 -8 -100 0 -110 2 -105 18 2 9
25 94 51 187 50 188 56 205 61 190 2 -5 26 -93 54 -195z"/>
</g>
</svg>
